<svg width="13" height="13" viewBox="0 0 13 13" fill="none" xmlns="http://www.w3.org/2000/svg">
<path d="M4.88041 7.58333H1.62499C1.32708 7.58333 1.08333 7.82708 1.08333 8.125C1.08333 8.42292 1.32708 8.66667 1.62499 8.66667H4.88041V9.63625C4.88041 9.88 5.17291 9.99917 5.34083 9.82583L6.84666 8.31458C6.94958 8.20625 6.94958 8.03833 6.84666 7.93L5.34083 6.41875C5.17291 6.24542 4.88041 6.37 4.88041 6.60833V7.58333ZM8.11958 6.38625V5.41667H11.375C11.6729 5.41667 11.9167 5.17292 11.9167 4.875C11.9167 4.57708 11.6729 4.33333 11.375 4.33333H8.11958V3.36375C8.11958 3.12 7.82708 3.00083 7.65916 3.17417L6.15333 4.68542C6.05041 4.79375 6.05041 4.96167 6.15333 5.07L7.65916 6.58125C7.82708 6.74917 8.11958 6.63 8.11958 6.38625Z" fill="#223E7C"/>
</svg>
