<svg width="15" height="15" viewBox="0 0 15 15" fill="none" xmlns="http://www.w3.org/2000/svg">
<path d="M6.4375 1.575L9.375 6.5625H12.8125C13.3312 6.5625 13.75 6.98125 13.75 7.5C13.75 8.01875 13.3312 8.4375 12.8125 8.4375H9.375L6.4375 13.425C6.325 13.625 6.10625 13.75 5.875 13.75C5.4375 13.75 5.125 13.3313 5.24375 12.9125L6.55625 8.4375H3.125L2.28125 9.85C2.225 9.94375 2.11875 10 2.0125 10H1.7H1.65C1.44375 10 1.29375 9.80625 1.34375 9.6125L1.8 7.7875L1.875 7.5L1.81875 7.2625L1.75 7L1.45 5.8125L1.34375 5.39375C1.29375 5.19375 1.44375 5.00625 1.65 5.00625H1.88125H2.0125C2.125 5.00625 2.225 5.0625 2.28125 5.15625L3.125 6.5625L6.5625 6.5625L5.25 2.0875C5.125 1.66875 5.4375 1.25 5.875 1.25C6.10625 1.25 6.325 1.375 6.4375 1.575Z" fill="#223E7C"/>
</svg>
